<?xml version="1.0" standalone="no"?>
<!DOCTYPE svg PUBLIC "-//W3C//DTD SVG 20010904//EN"
 "http://www.w3.org/TR/2001/REC-SVG-20010904/DTD/svg10.dtd">
<svg version="1.0" xmlns="http://www.w3.org/2000/svg"
 width="512.000000pt" height="375.000000pt" viewBox="0 0 512.000000 375.000000"
 preserveAspectRatio="xMidYMid meet">

<g transform="translate(0.000000,375.000000) scale(0.100000,-0.100000)"
fill="#000000" stroke="none">
<path d="M2214 3158 c-26 -46 -79 -137 -117 -203 -218 -375 -397 -688 -397
-691 0 -2 7 -1 15 2 8 3 80 18 161 33 l147 26 46 81 c25 44 84 146 130 227 46
81 87 147 90 147 3 0 24 -33 47 -73 22 -39 76 -134 120 -209 l79 -138 142 0
c79 0 143 2 143 4 0 2 -23 43 -51 92 -29 49 -102 177 -164 284 -62 107 -136
236 -165 285 -29 50 -68 118 -87 153 -30 53 -39 62 -63 62 -25 0 -34 -10 -76
-82z m206 -245 c69 -120 158 -274 198 -342 39 -69 72 -129 72 -134 0 -4 -25
-7 -56 -5 l-56 3 -64 110 c-35 61 -99 172 -141 247 -43 76 -80 138 -83 138 -3
0 -75 -121 -160 -269 l-155 -270 -59 -10 c-33 -6 -61 -9 -64 -7 -2 2 74 138
169 303 95 164 193 333 217 376 24 42 47 77 51 77 4 0 63 -98 131 -217z"/>
<path d="M2783 2293 c-5 -1 -28 -4 -53 -6 -29 -2 -44 -8 -42 -16 1 -7 -2 -10
-8 -6 -6 3 -7 11 -4 17 5 8 -23 9 -97 4 -239 -15 -267 -20 -286 -44 -12 -16
-12 -15 -6 2 6 17 3 18 -27 13 -18 -4 -41 -7 -52 -7 -15 0 -19 -5 -14 -17 5
-16 4 -16 -6 -2 -11 16 -7 17 -155 -16 -13 -3 -23 -10 -23 -16 0 -6 4 -8 9 -4
5 3 12 1 15 -4 4 -5 2 -13 -4 -16 -8 -5 -7 -11 1 -21 6 -7 15 -11 20 -8 5 3 8
2 7 -3 -3 -7 5 -13 17 -13 3 0 1 9 -5 20 -7 12 -16 18 -23 13 -9 -5 -9 -3 0 9
7 8 11 18 8 21 -3 4 -2 5 2 2 3 -3 12 3 20 13 12 16 13 15 6 -3 -6 -20 -6 -20
18 0 13 11 21 16 16 11 -4 -5 1 -18 10 -29 10 -11 12 -17 5 -13 -9 5 -15 1
-19 -13 -3 -12 -10 -21 -15 -21 -5 0 -6 -5 -3 -10 4 -6 12 -7 18 -3 21 13 37
12 37 -2 0 -8 -5 -17 -10 -20 -6 -4 -8 -10 -5 -15 3 -5 1 -11 -4 -14 -5 -4
-13 -1 -16 4 -5 8 -14 5 -28 -7 -15 -12 -18 -13 -9 -2 10 13 7 20 -15 40 -21
19 -25 20 -20 6 4 -11 3 -16 -4 -12 -6 4 -8 13 -5 20 5 15 -17 38 -27 28 -4
-3 -2 -12 4 -20 6 -7 8 -13 4 -13 -4 0 -2 -7 5 -15 7 -9 10 -18 6 -22 -3 -3
-6 -1 -6 6 0 7 -5 9 -10 6 -6 -4 -8 -11 -5 -16 4 -5 -1 -19 -9 -31 -9 -12 -16
-17 -16 -11 0 7 5 15 10 18 6 3 10 11 10 17 0 6 -8 4 -18 -5 -17 -15 -18 -14
-19 16 -1 27 0 28 5 9 7 -23 8 -23 23 -5 17 20 19 43 4 42 -5 0 -9 -8 -7 -17
2 -15 1 -15 -9 1 -14 24 -39 5 -34 -25 3 -11 1 -17 -3 -14 -4 4 -7 12 -7 17 0
5 -4 8 -10 7 -9 -3 -9 -16 -3 -65 2 -16 46 -35 53 -23 4 6 14 10 24 10 22 0
49 30 46 51 -2 9 3 16 11 16 7 0 10 -5 6 -11 -9 -15 -11 -36 -4 -36 4 0 41 12
82 26 93 31 106 35 150 41 39 6 83 40 76 60 -3 7 -1 15 5 18 5 4 6 11 3 17 -4
6 -12 2 -19 -12 -10 -19 -13 -20 -18 -6 -4 11 -3 15 4 10 7 -4 9 0 5 14 -4 11
-2 23 4 27 6 3 8 10 6 14 -3 4 6 7 19 7 14 0 22 -2 20 -5 -3 -2 3 -9 12 -16
13 -10 14 -13 2 -20 -8 -5 -11 -5 -7 0 13 13 -25 35 -39 23 -7 -6 -13 -15 -13
-20 0 -6 7 -5 15 2 15 12 16 11 19 -12 2 -18 32 -17 44 2 9 14 8 21 -3 30 -8
7 -12 16 -9 21 8 14 25 11 22 -3 -2 -7 2 -14 7 -15 6 -2 10 1 10 6 0 5 3 12 7
15 5 3 6 3 3 -1 -3 -3 1 -13 8 -21 8 -11 8 -14 0 -9 -15 10 -53 -39 -48 -62 3
-19 -16 -23 -32 -7 -4 4 -3 6 2 4 6 -1 11 2 13 7 1 6 -5 10 -14 10 -11 0 -18
-10 -20 -27 -1 -16 0 -28 4 -28 6 0 59 12 120 25 15 4 20 10 15 18 -5 9 -4 9
8 0 16 -13 69 -6 69 9 0 5 -5 6 -11 3 -6 -4 -13 2 -16 14 -3 11 -9 18 -15 15
-5 -3 -6 -15 -3 -27 5 -20 5 -20 -5 -4 -12 19 2 48 22 44 6 -1 12 6 13 16 6
31 13 30 11 -2 0 -16 -4 -27 -8 -25 -5 3 -8 -2 -8 -10 0 -17 20 -17 33 -1 5 6
7 3 3 -7 -4 -13 0 -18 14 -18 10 0 21 -4 24 -9 6 -10 20 -9 48 4 10 4 16 11
13 15 -3 5 -1 12 5 15 13 8 -6 35 -23 35 -8 0 -8 -3 0 -11 18 -18 3 -49 -23
-47 -16 2 -20 6 -13 13 5 5 14 10 20 10 5 0 8 5 7 10 -2 6 -6 9 -9 8 -3 -1 -6
4 -6 12 0 8 3 14 6 13 24 -2 41 4 39 14 -2 7 7 13 19 14 12 1 21 -2 20 -6 -1
-5 3 -7 8 -6 6 0 9 4 8 7 -1 3 5 6 13 6 8 0 12 -2 9 -5 -2 -3 1 -14 7 -26 7
-11 12 -24 13 -28 0 -5 3 -8 8 -8 4 0 10 0 13 0 3 0 -3 13 -13 30 -14 24 -15
32 -5 42 11 11 12 9 6 -6 -6 -15 -4 -17 6 -11 9 5 11 4 6 -4 -9 -15 20 -61 38
-61 23 0 38 26 23 39 -8 6 -16 8 -19 5 -3 -3 -5 8 -3 24 2 27 0 29 -36 28 -21
0 -42 -2 -46 -3z m-133 -23 c0 8 3 10 6 7 4 -4 2 -12 -3 -19 -6 -7 -9 -21 -8
-30 2 -9 -4 -23 -13 -30 -15 -11 -15 -11 -6 2 12 18 12 49 -1 70 -8 13 -7 13
8 1 13 -11 17 -11 17 -1z m-125 -50 c-8 -9 -12 -20 -8 -25 5 -4 2 -5 -4 -1 -8
5 -13 1 -14 -11 0 -11 -3 -13 -6 -5 -3 7 0 18 6 26 7 9 6 19 -5 37 l-16 24 20
-22 c25 -28 38 -17 15 11 -18 21 -18 21 5 2 20 -17 21 -21 7 -36z m91 25 c1
-8 -1 -17 -5 -19 -4 -3 -7 6 -7 19 0 25 8 25 12 0z m255 -19 c8 4 9 3 5 -5
-10 -16 -36 5 -35 28 0 10 3 8 10 -7 5 -14 13 -20 20 -16z m-615 -5 c-11 -12
-13 -20 -5 -28 8 -8 7 -13 -2 -18 -7 -5 -10 -4 -6 2 4 6 -1 17 -10 24 -15 13
-16 11 -9 -11 10 -32 15 -92 7 -84 -3 3 -6 10 -6 15 0 5 -4 8 -10 7 -5 -2 -8
-10 -6 -18 1 -8 1 -13 -1 -10 -2 3 -10 14 -18 24 -8 11 -10 17 -3 13 6 -4 14
-3 18 3 4 6 11 7 17 4 8 -5 9 -1 3 12 -4 10 -9 35 -11 54 -3 28 -1 32 7 17 8
-14 14 -16 25 -6 7 6 11 16 7 22 -4 6 -1 7 6 3 9 -6 9 -12 -3 -25z m-80 -4 c4
-3 -3 -4 -16 -2 -17 3 -20 1 -15 -13 5 -13 3 -14 -6 -5 -6 6 -8 16 -5 21 6 11
31 10 42 -1z m114 -8 c0 -5 4 -8 9 -4 5 3 12 1 16 -4 3 -6 -4 -8 -15 -6 -14 3
-20 0 -17 -8 3 -7 9 -11 15 -10 5 1 9 -5 7 -15 -1 -9 3 -24 9 -32 9 -13 9 -13
-6 -2 -13 10 -17 10 -21 0 -4 -9 -6 -9 -6 -1 -1 6 4 15 9 18 6 4 3 16 -10 32
-19 24 -19 43 1 43 5 0 9 -5 9 -11z m194 2 c-3 -3 -11 -6 -17 -6 -7 0 -12 -10
-12 -22 0 -12 -4 -25 -8 -29 -10 -10 -5 36 5 52 4 6 14 11 23 11 8 0 12 -3 9
-6z m-288 -30 c-4 -5 -1 -11 6 -13 8 -3 6 -6 -4 -10 -11 -5 -15 -2 -13 10 5
23 4 22 11 22 3 0 3 -4 0 -9z m-29 -15 c-3 -7 1 -25 8 -40 8 -15 10 -24 5 -21
-5 3 -13 -3 -19 -12 -6 -10 -11 -13 -11 -6 0 6 5 15 10 18 6 4 8 10 6 14 -11
17 -14 61 -4 61 5 0 8 -6 5 -14z m172 -14 c-5 -2 -6 -9 -2 -15 3 -7 2 -9 -2
-4 -5 4 -10 17 -12 28 -2 16 -1 18 11 7 8 -7 10 -15 5 -16z m-66 -5 c-4 -7 -8
-15 -8 -19 0 -3 -3 -9 -6 -12 -3 -4 -5 6 -3 21 3 36 2 35 14 28 6 -4 7 -12 3
-18z m-249 -101 c-3 -9 -10 -16 -15 -16 -5 0 -4 9 3 20 14 22 21 20 12 -4z
m-54 -30 c0 -6 -7 -1 -15 10 -8 10 -15 23 -15 28 0 6 7 1 15 -10 8 -10 15 -23
15 -28z"/>
<path d="M2877 2293 c-4 -3 -1 -13 6 -21 10 -13 9 -14 -3 -7 -8 4 -5 -3 8 -17
20 -22 21 -26 7 -38 -8 -7 -15 -24 -15 -39 0 -20 2 -23 10 -11 5 8 10 10 10 4
0 -17 -27 -37 -27 -21 -1 25 -8 42 -23 54 -12 9 -20 7 -42 -14 -15 -14 -25
-30 -22 -34 3 -5 15 3 28 18 l23 27 12 -23 c7 -12 10 -25 8 -28 -3 -2 -8 5
-12 16 -3 12 -11 19 -16 15 -5 -3 -6 -11 -2 -17 4 -7 8 -20 9 -29 1 -10 2 -19
4 -20 7 -10 7 -37 -1 -32 -9 5 -14 -11 -9 -31 7 -33 6 -42 -12 -62 -12 -13
-17 -27 -12 -34 5 -9 9 -8 14 6 6 18 7 17 12 -3 3 -12 3 -20 -1 -19 -3 1 -7
-2 -8 -8 -2 -5 5 -10 15 -10 9 0 17 5 17 12 0 6 3 14 7 18 3 4 5 -1 3 -12 -2
-10 -4 -18 -5 -18 -7 0 -6 -36 1 -41 8 -5 13 10 10 29 -1 5 3 6 9 2 7 -4 7
-12 0 -26 -10 -17 -6 -23 12 -20 4 0 5 -6 2 -14 -9 -23 5 -38 22 -24 10 8 11
15 4 24 -6 7 -7 21 -3 31 6 17 5 18 -13 4 -14 -11 -16 -11 -7 0 10 11 9 17 -4
32 -14 16 -15 23 -5 38 7 12 8 21 2 25 -6 3 -10 0 -10 -7 -1 -20 -24 24 -25
48 -1 11 -5 27 -9 35 -4 8 -1 6 7 -4 9 -11 18 -14 21 -8 4 5 2 12 -3 16 -5 3
-8 14 -6 25 2 11 0 22 -6 25 -5 4 -9 12 -9 18 0 7 4 6 10 -3 5 -8 10 -12 10
-8 0 4 14 3 30 -2 33 -9 35 -8 20 21 -19 34 -3 20 20 -18 12 -20 15 -31 7 -25
-11 10 -17 9 -26 -1 -6 -8 -7 -18 -3 -23 4 -4 -1 -2 -10 5 -19 14 -25 26 -9
16 5 -3 12 -1 16 5 7 11 -28 14 -38 3 -4 -3 -2 -12 4 -20 6 -7 8 -13 4 -13 -4
0 -1 -8 6 -17 8 -9 9 -14 3 -10 -13 7 -31 -11 -30 -30 1 -7 5 -12 11 -10 5 1
8 9 6 17 -1 8 0 12 4 8 6 -5 8 -14 14 -48 1 -3 5 2 11 10 5 9 5 19 -1 26 -7 8
-6 14 1 19 6 3 8 11 4 16 -3 6 3 5 15 -3 12 -7 19 -18 17 -25 -3 -7 -1 -15 4
-18 5 -3 7 -12 3 -20 -4 -11 -1 -13 11 -9 15 6 18 24 4 34 -4 3 1 11 12 18 12
7 21 8 25 2 4 -6 3 -10 -2 -9 -20 3 -27 -2 -13 -11 11 -7 11 -10 2 -10 -7 0
-11 -4 -7 -9 3 -6 -4 -15 -15 -21 -17 -9 -18 -15 -10 -33 10 -20 10 -21 -3 -4
-9 10 -18 14 -21 9 -3 -5 3 -17 14 -27 20 -18 20 -18 -2 -42 -15 -16 -17 -23
-7 -23 11 0 11 -2 1 -9 -10 -6 -10 -10 3 -21 13 -10 15 -9 16 6 1 11 1 23 0
28 -1 5 4 16 11 25 15 18 16 40 5 58 -4 6 -3 15 3 18 6 4 9 3 8 -2 -2 -4 0 -9
5 -11 4 -1 7 1 8 6 0 4 5 13 11 20 7 8 7 12 -2 12 -8 0 -10 3 -7 7 11 11 47
-29 46 -51 -1 -20 -2 -18 -15 22 -2 7 -9 10 -14 7 -8 -5 -8 -11 0 -20 6 -7 7
-21 3 -30 -4 -13 -3 -16 6 -10 10 6 11 3 3 -12 -6 -11 -7 -25 -2 -33 5 -8 6
-18 3 -23 -3 -5 0 -8 6 -6 7 3 11 7 10 9 -1 3 3 15 10 28 10 19 15 21 27 11 8
-6 14 -16 14 -22 0 -6 -6 -3 -13 7 -12 17 -14 17 -20 2 -4 -9 -1 -16 6 -16 7
0 5 -5 -4 -10 -10 -6 -15 -18 -12 -33 5 -25 -20 -56 -32 -37 -3 5 -11 10 -17
10 -6 0 -3 -9 7 -20 l18 -20 23 21 c13 12 21 26 17 32 -4 6 -1 7 6 2 9 -5 6
-14 -13 -34 -39 -41 -31 -50 9 -11 21 21 31 38 26 43 -5 5 -7 16 -4 25 5 11 2
13 -8 7 -11 -6 -12 -5 -2 5 15 16 21 12 26 -21 2 -13 9 -24 15 -24 6 0 14 -3
18 -7 10 -10 14 -58 4 -55 -4 1 -8 -2 -8 -8 0 -5 3 -9 7 -8 4 1 8 -5 8 -13 0
-28 -32 13 -34 43 -1 22 0 24 6 9 5 -12 10 -16 14 -9 11 17 -3 41 -21 38 -9
-1 -16 -8 -14 -15 1 -6 -2 -9 -7 -6 -5 4 -12 2 -16 -4 -3 -5 1 -10 9 -10 9 0
16 -8 16 -18 0 -10 6 -24 13 -32 10 -12 9 -12 -7 0 -24 18 -49 22 -43 6 3 -7
-1 -13 -9 -13 -12 0 -12 4 1 23 23 35 18 40 -12 13 -16 -13 -25 -20 -21 -15
10 12 -11 48 -23 40 -7 -4 -6 -10 1 -19 8 -9 8 -15 0 -20 -10 -6 -11 -5 -14
16 0 6 -10 17 -20 25 -11 8 -14 14 -7 14 7 0 9 5 6 10 -3 6 1 10 10 10 9 0 13
5 10 10 -4 6 -11 7 -17 4 -7 -5 -8 -2 -4 5 5 7 10 10 13 7 11 -11 41 14 38 31
-2 10 -4 22 -4 26 -1 5 -5 6 -10 2 -6 -3 -8 -14 -6 -24 2 -10 -3 -18 -11 -18
-8 0 -10 5 -6 11 11 15 9 36 -3 36 -5 0 -10 -8 -11 -19 -2 -28 -13 -55 -21
-48 -3 4 -12 -1 -19 -11 -10 -13 -13 -14 -14 -3 0 11 -4 10 -14 -4 -8 -11 -12
-26 -9 -35 4 -12 3 -13 -5 -1 -7 10 -6 21 4 37 10 15 12 24 5 29 -11 6 -12 5
-15 -14 0 -5 -4 -12 -8 -16 -3 -4 -5 0 -4 9 1 8 5 18 8 21 10 11 -4 45 -16 38
-6 -3 -8 -3 -4 2 11 12 -12 36 -26 28 -6 -4 -5 0 2 9 8 10 9 19 3 22 -12 7
-25 -29 -16 -44 4 -6 11 -7 17 -4 6 4 8 2 4 -4 -3 -6 1 -18 10 -26 8 -9 11
-16 5 -16 -10 0 -8 -31 4 -50 9 -14 16 -54 8 -46 -3 3 -12 1 -20 -5 -11 -9
-11 -15 -1 -28 10 -13 9 -13 -8 1 -19 17 -32 64 -13 53 5 -4 9 -1 9 5 0 6 5 8
12 4 8 -5 9 -2 4 12 -5 10 -10 30 -11 44 -2 14 -3 29 -4 33 -1 5 -5 6 -10 2
-6 -3 -8 -13 -6 -23 2 -13 -3 -18 -21 -18 -13 0 -21 2 -18 6 3 3 11 5 17 5 7
0 12 19 12 50 1 57 -4 73 -16 54 -6 -10 -42 -13 -153 -12 -94 1 -144 -2 -140
-9 3 -5 -3 -4 -14 3 -17 11 -24 10 -38 -2 -10 -8 -15 -9 -11 -3 4 7 -26 11
-94 12 -72 1 -99 -2 -99 -11 0 -8 -3 -9 -8 -1 -10 15 -202 15 -221 0 -12 -9
-13 -8 -7 3 6 9 5 12 -3 10 -7 -3 -12 -9 -12 -14 0 -6 -7 -17 -15 -26 -8 -9
-11 -19 -8 -22 4 -4 13 1 20 11 7 9 18 17 26 17 7 1 12 6 11 11 -1 6 4 11 12
11 9 0 7 -9 -8 -29 -24 -32 -29 -35 -21 -10 5 15 4 15 -9 -1 -9 -11 -14 -26
-12 -36 2 -12 -4 -17 -20 -17 -21 0 -28 17 -12 32 4 4 -2 18 -14 30 -15 16
-17 24 -8 29 7 5 10 4 6 -2 -4 -6 0 -16 7 -22 11 -9 16 -9 22 1 20 32 13 38
-47 35 -40 -1 -58 -6 -55 -14 4 -11 -19 -38 -33 -38 -3 0 -4 -6 -3 -13 2 -8
-1 -19 -6 -25 -14 -18 5 -62 21 -49 6 6 16 12 22 14 5 1 9 6 7 11 -8 25 -5 32
12 29 17 -3 18 -2 7 12 -13 15 -16 15 -31 1 -14 -13 -17 -13 -17 0 0 8 4 12 9
9 5 -3 15 10 23 28 10 24 14 27 15 13 0 -12 3 -16 8 -9 5 8 12 5 24 -10 12
-16 13 -27 6 -37 -8 -11 -9 -11 -5 3 3 9 -1 22 -9 29 -13 10 -14 8 -10 -16 3
-16 11 -32 18 -37 10 -6 10 -8 1 -8 -7 0 -13 -4 -13 -8 0 -5 20 -8 44 -7 39 2
44 -1 41 -18 -3 -13 0 -17 10 -14 17 7 41 -18 25 -28 -6 -4 -10 -3 -9 2 3 20
-2 23 -21 13 -11 -6 -18 -15 -14 -21 9 -16 -16 -39 -41 -37 -15 2 -21 7 -17
16 4 11 7 11 12 1 13 -19 39 -3 33 20 -3 14 -1 21 8 21 11 0 11 2 -1 10 -12 8
-12 10 -1 10 20 0 5 13 -21 17 -18 3 -19 1 -7 -14 10 -12 10 -15 1 -9 -8 5
-16 -2 -23 -24 -6 -17 -14 -29 -16 -26 -3 3 2 18 10 35 9 17 11 33 7 36 -12 7
-32 -30 -22 -40 4 -5 1 -5 -6 -1 -7 4 -10 12 -6 17 12 20 11 59 -1 59 -7 0
-11 -10 -10 -23 2 -13 -6 -34 -17 -48 -17 -21 -18 -21 -9 -2 7 14 8 24 1 28
-10 6 -14 -1 -11 -18 1 -5 -3 -6 -8 -2 -14 8 -31 -28 -21 -46 6 -11 4 -15 -11
-16 -10 -1 -19 3 -19 8 0 6 -6 7 -12 2 -20 -12 -38 -12 -38 0 0 5 -3 7 -7 4
-3 -4 -13 -1 -21 6 -13 10 -15 9 -9 -8 7 -20 7 -20 -8 -1 -13 17 -19 15 -16
-6 0 -3 -7 -5 -17 -3 -9 1 -16 8 -14 15 2 7 -3 10 -12 7 -9 -4 -18 -2 -22 4
-4 6 -12 5 -22 -3 -15 -11 -15 -11 -4 4 9 11 10 18 2 23 -5 3 -14 -4 -19 -17
-6 -14 -10 -17 -10 -7 -1 8 5 21 12 27 6 7 13 17 13 22 1 6 2 11 4 13 6 8 7
37 0 37 -6 0 -19 -27 -24 -52 0 -4 -7 -13 -13 -20 -17 -16 -16 -23 3 -42 8 -9
11 -16 5 -16 -6 0 -18 14 -26 31 -12 22 -20 28 -28 21 -7 -6 -16 -10 -22 -10
-5 0 -11 -5 -13 -10 -4 -12 16 -10 38 3 9 5 8 0 -4 -13 -10 -12 -22 -19 -27
-17 -4 3 -12 -3 -18 -12 -6 -11 -11 -13 -11 -5 0 7 -5 10 -10 7 -8 -5 -8 -11
0 -20 8 -10 4 -20 -15 -41 -14 -16 -25 -24 -24 -19 3 23 -2 29 -12 15 -8 -12
-9 -11 -7 5 2 13 -2 19 -11 17 -11 -2 -12 0 -3 11 10 11 9 17 -3 27 -8 7 -15
9 -15 5 0 -4 -6 -2 -13 4 -8 6 -18 7 -23 3 -5 -4 0 3 10 15 10 13 23 20 27 17
5 -3 9 -1 9 5 0 5 -5 12 -10 14 -6 3 -5 4 2 3 17 -3 17 -31 1 -31 -19 0 -21
-18 -2 -20 26 -4 40 29 23 54 -9 12 -19 19 -24 16 -9 -6 -6 28 5 44 3 5 1 12
-4 15 -13 8 -62 -34 -55 -46 4 -7 2 -8 -4 -4 -7 4 -12 2 -12 -5 0 -7 -3 -9 -7
-6 -3 4 3 18 15 30 12 13 19 28 15 33 -5 5 -4 6 1 1 5 -4 20 0 32 8 21 14 24
13 34 -6 9 -15 15 -18 25 -9 9 8 15 8 20 0 3 -6 11 -7 17 -4 7 4 5 10 -6 16
-12 7 -14 14 -6 27 5 10 6 21 2 25 -3 4 1 4 11 1 15 -6 15 -8 1 -22 -12 -13
-13 -18 -3 -24 8 -4 18 -4 24 1 14 11 13 101 0 98 -6 -2 -9 -14 -7 -26 2 -15
-1 -21 -7 -17 -6 3 -11 15 -11 26 0 11 -5 17 -10 14 -6 -4 -8 -10 -5 -15 3 -4
-3 -14 -13 -21 -15 -13 -16 -12 -3 4 7 9 10 17 6 17 -4 0 -2 7 5 15 6 8 9 18
6 24 -8 12 -42 7 -38 -5 2 -5 9 -8 15 -6 7 2 6 -2 -1 -11 -7 -8 -9 -17 -5 -21
4 -4 -1 -4 -11 0 -18 7 -18 6 0 -22 11 -15 13 -25 7 -21 -7 5 -13 4 -13 -2 0
-19 19 -21 29 -4 6 10 10 14 10 8 0 -5 -6 -18 -13 -27 -12 -16 -14 -16 -25 5
-7 13 -21 24 -32 24 -17 2 -18 -1 -9 -13 7 -8 11 -14 9 -15 -31 -6 -40 -6 -45
2 -3 5 0 8 8 7 8 -2 13 6 12 19 -1 15 3 20 14 15 11 -4 13 -2 7 9 -5 8 1 5 13
-5 30 -26 28 -5 -2 23 l-24 23 -13 -24 c-7 -12 -12 -30 -10 -38 2 -8 0 -12 -4
-8 -3 3 -8 14 -10 25 -1 10 -9 17 -16 15 -8 -2 -3 8 10 22 28 29 22 34 -14 10
-13 -8 -23 -21 -21 -27 1 -7 1 -9 -1 -4 -8 13 -25 7 -20 -7 4 -11 1 -13 -11
-9 -15 6 -15 5 -3 -10 11 -14 17 -15 30 -5 14 11 14 11 5 -2 -6 -8 -10 -35 -9
-59 2 -33 0 -40 -7 -27 -8 14 -12 15 -26 4 -11 -8 -9 -3 4 12 25 30 25 49 1
64 -15 9 -23 5 -48 -22 -25 -28 -28 -36 -18 -50 11 -14 11 -15 -1 -4 -8 6 -17
12 -21 12 -11 0 -71 -129 -64 -139 3 -5 1 -13 -5 -16 -6 -4 -9 -29 -8 -56 2
-37 6 -48 17 -44 10 4 11 2 3 -8 -14 -17 -8 -67 9 -78 8 -5 10 -9 6 -9 -30 0
115 -169 188 -219 65 -44 69 -46 61 -30 -4 8 -1 6 7 -4 8 -10 18 -14 21 -9 3
5 -1 15 -9 22 -9 7 -13 21 -10 31 4 11 0 19 -12 22 -16 4 -16 5 -1 6 15 1 16
5 8 27 -9 22 -8 25 5 21 17 -7 41 28 25 38 -9 6 -13 0 -12 -16 1 -3 -6 -6 -13
-6 -10 0 -12 4 -5 12 7 9 6 16 -4 24 -12 10 -15 9 -15 -6 -1 -39 -5 -52 -14
-50 -5 1 -12 -4 -15 -12 -2 -8 0 -11 5 -8 5 3 9 -3 10 -13 1 -15 -3 -13 -25 9
l-26 26 -7 -25 c-6 -21 -7 -22 -8 -5 -1 21 16 45 32 45 4 0 5 -5 1 -11 -4 -7
-1 -10 7 -7 8 3 13 11 11 17 -1 7 2 10 8 6 9 -6 15 8 11 29 -1 4 4 14 10 22 8
9 8 14 1 14 -6 0 -16 -8 -21 -17 -6 -10 -11 -13 -11 -7 0 6 11 21 24 33 24 22
26 58 2 44 -6 -4 -5 1 3 10 16 20 33 13 24 -11 -6 -15 -5 -15 10 -3 16 13 16
15 1 32 -10 11 -14 19 -9 19 4 0 3 6 -3 13 -14 16 -10 41 10 64 8 10 13 24 11
31 -3 6 0 12 5 12 14 0 9 -24 -8 -45 -8 -9 -15 -26 -17 -37 -3 -17 -1 -19 12
-8 8 7 13 16 10 20 -2 4 4 15 13 24 16 13 21 14 37 2 14 -10 15 -15 5 -21 -8
-5 -11 -4 -7 2 10 15 -20 24 -31 10 -5 -7 -8 -20 -7 -29 2 -10 -2 -16 -8 -15
-16 3 -16 -25 1 -45 12 -15 18 -16 30 -5 12 9 11 6 -2 -15 -10 -15 -13 -29 -8
-32 16 -9 29 16 28 54 -1 19 3 38 7 41 5 3 9 20 9 38 1 17 7 36 15 42 7 6 13
17 13 23 0 7 6 20 13 29 11 16 70 18 876 17 807 0 862 1 850 17 -8 9 -9 14 -2
10 7 -5 9 0 6 14 -6 22 -18 15 -27 -16 -3 -11 -4 -4 -2 15 4 38 -26 110 -46
110 -6 0 -8 3 -5 6 7 7 -40 94 -58 106 -5 4 -6 8 -1 8 5 0 2 8 -6 18 -8 9 -18
25 -21 35 -4 11 -12 15 -18 11 -7 -4 -9 -3 -5 4 6 10 -33 91 -59 122 -7 8 -20
32 -28 52 -14 32 -14 37 0 42 9 4 12 14 9 28 -3 13 -3 17 0 10 3 -6 9 -10 14
-7 4 3 6 -5 3 -17 -4 -22 -4 -22 12 2 9 14 14 17 11 8 -3 -12 0 -18 10 -18 11
0 14 7 10 23 -3 12 -3 16 0 9 3 -6 10 -9 15 -6 6 4 6 10 0 18 -8 9 -7 13 3 13
14 0 14 -26 1 -47 -4 -6 18 -10 59 -10 73 0 99 7 89 24 -5 7 -2 7 8 -1 15 -12
111 -14 104 -3 -2 4 2 7 10 7 8 0 12 -4 10 -7 -3 -4 7 -7 20 -7 21 0 23 2 13
14 -22 27 -59 34 -196 38 -120 4 -137 3 -148 -13 -10 -14 -15 -15 -26 -4 -11
11 -10 12 5 7 11 -5 17 -2 17 6 0 8 -11 14 -25 14 -19 0 -26 -7 -31 -27 -6
-30 -21 -38 -21 -13 0 8 4 15 9 15 4 0 8 7 8 15 0 8 -5 15 -11 15 -5 0 -7 -6
-3 -12 6 -10 5 -10 -8 -1 -8 7 -18 10 -21 6z m176 -27 c3 -8 -2 -20 -11 -27
-14 -11 -15 -11 -5 0 6 7 9 20 6 27 -3 8 -3 14 0 14 3 0 7 -6 10 -14z m50 0
c11 1 16 -1 12 -4 -4 -4 -11 -8 -16 -8 -22 -3 -23 -5 -9 -14 12 -7 10 -9 -7
-7 -15 1 -19 5 -13 12 6 7 5 17 -3 25 -10 12 -9 12 3 3 8 -6 23 -9 33 -7z m51
-13 c-4 -13 -13 -21 -24 -20 -10 1 -16 5 -14 9 3 5 10 5 16 2 8 -5 9 -1 5 10
-4 10 -3 15 3 11 6 -3 10 -1 10 6 0 7 2 10 5 8 2 -3 2 -14 -1 -26z m77 2 c0
-5 -5 -11 -12 -14 -7 -2 -9 1 -5 8 4 6 0 11 -9 11 -10 0 -13 -5 -9 -12 5 -9 2
-9 -9 1 -9 7 -17 14 -17 16 0 8 60 -2 61 -10z m49 11 c0 -2 -7 -6 -15 -10 -8
-3 -15 -1 -15 4 0 6 7 10 15 10 8 0 15 -2 15 -4z m-369 -83 c13 -16 12 -17 -3
-4 -17 13 -22 21 -14 21 2 0 10 -8 17 -17z m26 -125 c-3 -8 -6 -5 -6 6 -1 11
2 17 5 13 3 -3 4 -12 1 -19z m42 -9 c10 -4 9 -8 -5 -19 -10 -8 -15 -10 -11 -3
4 6 3 14 -3 18 -5 3 -10 12 -10 18 0 8 2 9 8 1 4 -6 13 -13 21 -15z m-124 -78
c3 -5 2 -12 -3 -15 -5 -3 -9 1 -9 9 0 17 3 19 12 6z m221 -73 c4 -6 3 -8 -4
-4 -6 3 -14 -3 -17 -15 -4 -11 -9 -18 -12 -16 -5 5 14 47 22 47 2 0 7 -5 11
-12z m-959 -22 c4 -4 8 -13 8 -19 0 -7 5 -12 12 -12 17 0 28 -14 28 -36 0 -27
19 -19 21 9 0 12 9 31 20 43 17 19 19 19 31 3 7 -9 10 -21 7 -26 -3 -5 0 -17
8 -26 12 -15 11 -16 -5 -3 -9 7 -17 19 -16 25 3 24 -2 37 -11 31 -6 -4 -7 -11
-4 -17 4 -7 2 -8 -4 -4 -7 4 -13 2 -13 -3 -1 -6 -2 -17 -3 -23 -1 -7 3 -16 9
-20 6 -5 5 -8 -3 -8 -7 0 -10 -5 -7 -10 4 -6 1 -17 -5 -25 -7 -8 -10 -15 -6
-15 3 0 1 -12 -4 -26 -8 -20 -7 -25 2 -22 7 3 14 10 14 16 1 7 3 14 4 17 1 3
4 10 5 15 1 6 4 13 5 18 1 4 2 11 1 15 -1 5 3 6 9 2 7 -4 8 -11 2 -18 -5 -7
-8 -20 -7 -29 2 -10 -1 -20 -6 -24 -5 -3 -7 -10 -3 -15 3 -6 12 -3 20 8 11 14
13 15 14 3 0 -13 1 -13 10 0 6 10 4 20 -5 30 -11 13 -11 19 1 40 14 22 14 17
1 -20 -1 -3 2 -6 7 -8 19 -5 22 84 4 114 -4 5 -3 16 3 24 6 10 9 11 9 3 0 -7
5 -13 11 -13 5 0 7 6 3 13 -4 6 1 4 11 -5 15 -14 16 -20 6 -32 -8 -9 -17 -13
-22 -10 -11 6 -11 1 -3 -21 6 -14 10 -13 31 12 22 26 23 26 9 2 -9 -14 -13
-29 -9 -34 5 -4 2 -5 -5 -1 -12 7 -21 -6 -26 -36 -1 -7 -5 -18 -9 -25 -4 -6
-3 -14 2 -17 5 -4 11 -3 14 1 2 5 2 2 1 -4 -2 -8 5 -11 19 -9 16 2 22 10 22
29 0 14 4 29 8 33 4 5 5 0 2 -11 -7 -20 -6 -20 10 0 9 11 22 29 29 39 10 16
14 17 21 6 5 -9 4 -11 -3 -6 -7 4 -12 3 -12 -2 0 -17 13 -22 27 -10 11 9 11
14 -3 29 -14 16 -20 17 -32 6 -10 -7 -13 -8 -9 -1 4 7 1 14 -6 17 -14 5 -16
41 -5 53 4 3 5 -6 4 -20 -3 -24 5 -31 28 -27 5 1 13 -4 17 -11 11 -18 30 -17
52 0 9 8 17 11 17 6 1 -5 7 2 15 16 16 28 21 19 5 -10 -10 -19 3 -37 28 -36
14 1 17 20 2 22 -20 3 -21 4 -15 15 5 7 13 4 26 -7 18 -16 19 -16 25 1 5 12 0
24 -15 37 -13 10 -19 18 -14 18 30 0 56 -81 32 -96 -5 -3 0 -19 11 -35 12 -16
18 -29 14 -29 -4 0 1 -6 11 -14 11 -8 16 -19 12 -30 -6 -16 -8 -16 -32 0 -22
14 -29 13 -27 -7 1 -3 -6 -6 -14 -6 -10 0 -11 4 -5 10 7 7 7 16 -2 26 -10 14
-10 14 4 4 13 -11 19 -10 32 5 13 14 13 20 2 35 -7 10 -15 14 -17 10 -3 -4 -4
-3 -2 3 1 6 -11 11 -27 11 -23 0 -26 -3 -18 -14 6 -7 16 -10 22 -6 6 3 7 1 3
-5 -7 -11 6 -17 27 -13 5 1 6 -3 2 -9 -7 -11 -39 2 -50 21 -5 7 -12 6 -21 -2
-9 -7 -14 -8 -12 -3 2 5 -1 9 -7 9 -5 0 -9 -4 -7 -8 1 -5 -2 -5 -8 -2 -8 5 -6
13 6 26 9 10 20 16 25 14 4 -3 10 -1 13 4 14 22 -15 19 -44 -5 -29 -25 -30
-28 -14 -45 12 -13 22 -16 40 -9 27 10 37 0 27 -26 -4 -12 -3 -15 5 -10 18 11
14 0 -5 -15 -10 -7 -15 -10 -11 -5 9 10 -9 46 -23 46 -6 0 -6 -8 1 -21 7 -11
9 -23 7 -26 -3 -2 -8 5 -12 16 -3 12 -11 19 -16 15 -6 -3 -5 -12 3 -22 12 -15
11 -16 -5 -3 -12 10 -14 17 -7 26 7 9 6 16 -3 24 -11 8 -18 6 -32 -9 -9 -10
-15 -25 -12 -33 3 -7 -1 -14 -8 -14 -7 0 -11 6 -9 12 3 6 -2 12 -11 12 -10 0
-14 -6 -10 -16 5 -12 3 -13 -5 -5 -18 18 -1 46 24 38 17 -6 19 -4 10 7 -6 8
-10 25 -8 39 4 24 3 24 -11 6 -8 -10 -12 -23 -9 -28 3 -5 0 -7 -7 -6 -7 2 -14
-3 -15 -9 -1 -7 -3 -16 -4 -20 -1 -5 -2 -11 -1 -15 0 -4 -11 -5 -25 -2 -14 3
-23 1 -20 -4 3 -5 -1 -9 -9 -9 -11 0 -12 4 -4 13 6 7 6 14 1 18 -6 3 -13 -1
-16 -10 -3 -8 -10 -13 -15 -9 -5 3 -13 1 -16 -5 -5 -8 -11 -7 -21 1 -11 9 -14
9 -14 -1 0 -10 -3 -10 -14 0 -11 8 -12 18 -6 35 5 14 6 27 0 30 -11 7 -23 -12
-15 -24 3 -5 1 -13 -5 -16 -8 -5 -7 -12 2 -23 7 -10 1 -7 -13 6 -22 19 -28 20
-37 9 -7 -8 -10 -17 -7 -20 3 -4 2 -4 -2 -1 -5 3 -9 10 -9 15 -1 5 -2 15 -3
22 -1 7 -10 2 -21 -12 -11 -13 -20 -19 -20 -14 0 5 5 14 12 21 9 9 9 17 -2 36
-7 14 -17 23 -22 20 -5 -3 -8 -2 -7 3 1 4 0 10 -1 13 -8 22 -7 39 3 34 31 -18
56 -48 48 -58 -6 -7 -2 -19 9 -33 15 -20 20 -21 30 -8 7 8 10 22 6 30 -3 9 1
18 9 21 11 5 12 11 4 25 -8 16 -6 21 13 29 13 5 20 9 16 9 -5 1 -10 0 -12 -1
-2 -2 -13 6 -25 16 -12 11 -21 14 -21 8 0 -6 4 -13 8 -16 11 -7 8 -47 -7 -73
-9 -18 -9 -23 0 -23 7 0 10 -3 6 -6 -15 -15 -27 8 -15 29 15 28 15 73 -1 69
-9 -2 -9 3 -1 18 6 11 8 20 5 20 -15 0 -20 -3 -17 -12 1 -5 -3 -6 -9 -2 -7 4
-9 0 -5 -14 4 -11 2 -23 -3 -27 -7 -4 -8 1 -4 12 6 16 5 17 -13 3 -18 -14 -18
-14 -4 5 39 54 56 63 77 41z m49 1 c4 -3 16 -2 28 4 20 10 20 10 -1 -9 -12
-11 -21 -21 -20 -23 1 -2 0 -2 -3 -1 -3 2 -6 8 -6 13 -3 22 -5 23 -13 11 -7
-11 -9 -11 -14 1 -6 15 15 18 29 4z m162 -12 c-3 -3 -9 2 -12 12 -6 14 -5 15
5 6 7 -7 10 -15 7 -18z m77 5 c-3 -5 -1 -11 5 -15 5 -3 10 -12 10 -18 0 -7 -6
-3 -12 8 -15 25 -19 47 -7 39 5 -3 7 -9 4 -14z m85 15 c0 -1 -14 -14 -32 -31
-17 -16 -28 -24 -24 -17 3 6 2 14 -4 18 -5 3 -10 12 -10 18 0 8 3 8 8 2 9 -14
38 -12 35 1 -1 6 5 11 13 11 8 0 14 -1 14 -2z m99 -29 c-3 -3 -11 5 -18 17
-13 21 -12 21 5 5 10 -10 16 -20 13 -22z m31 21 c0 -5 8 -3 17 4 10 8 14 9 10
2 -4 -6 -3 -14 3 -18 5 -3 10 -1 10 6 0 7 3 9 6 6 4 -4 3 -12 -3 -19 -12 -17
-11 -38 2 -37 6 0 9 8 8 17 -1 10 0 11 3 4 3 -6 10 -10 15 -6 5 3 6 11 2 17
-18 29 0 47 23 24 4 -4 14 -1 23 5 9 7 8 3 -3 -8 -13 -13 -20 -15 -23 -6 -3 6
-9 9 -14 6 -6 -4 -6 -10 0 -18 8 -9 2 -21 -20 -42 -17 -16 -29 -23 -27 -14 2
9 -3 14 -11 12 -10 -2 -12 1 -5 10 16 20 11 41 -10 44 -24 3 -42 21 -21 21 8
0 15 -5 15 -10z m177 -4 c0 -9 -4 -10 -13 -2 -10 8 -12 3 -10 -23 2 -18 -1
-41 -6 -50 -6 -13 -5 -18 4 -19 10 0 10 -2 1 -6 -21 -8 -15 -22 7 -18 29 6 34
-12 11 -44 -11 -15 -17 -32 -13 -36 4 -5 1 -5 -6 -1 -9 6 -8 14 8 36 23 33 26
48 6 31 -10 -8 -16 -9 -21 -1 -3 6 -11 8 -16 5 -5 -4 -6 2 -2 12 6 16 5 16
-10 4 -9 -7 -14 -17 -11 -22 3 -5 1 -8 -4 -7 -6 2 -10 -1 -11 -7 -1 -5 2 -10
7 -10 4 0 12 -4 19 -8 6 -4 14 -3 18 3 3 5 1 10 -6 10 -7 0 -10 3 -6 6 3 3 11
3 17 -1 8 -5 7 -12 -4 -24 -9 -10 -14 -20 -11 -22 2 -3 -5 -5 -16 -5 -18 0
-18 2 -5 12 9 6 13 14 9 18 -4 3 -18 -4 -32 -16 -14 -13 -23 -19 -18 -14 8 10
-20 46 -36 46 -6 0 -2 -9 8 -20 10 -11 15 -23 12 -27 -4 -3 -7 -1 -7 7 0 10
-3 10 -14 1 -10 -8 -16 -9 -21 -1 -4 6 -3 9 2 8 4 -2 8 2 8 7 0 6 -4 9 -9 7
-5 -2 -5 3 0 10 13 17 12 39 -1 36 -5 -2 -8 -10 -7 -18 2 -8 -8 1 -21 20 -14
19 -21 40 -17 45 4 6 6 18 5 28 -2 9 0 15 5 12 9 -6 8 -24 -2 -40 -7 -12 16
-48 25 -38 4 3 2 12 -4 20 -8 9 -8 13 -1 13 6 0 9 6 6 14 -3 8 -1 23 5 33 9
15 10 13 5 -9 -4 -16 -2 -28 4 -28 5 0 13 -7 16 -16 5 -14 4 -15 -9 -4 -8 7
-15 8 -15 2 0 -5 7 -15 15 -22 8 -7 15 -9 15 -5 0 4 6 2 14 -4 12 -10 17 -8
26 8 6 12 8 21 5 21 -12 0 -20 -6 -17 -13 1 -5 -2 -5 -9 -2 -7 5 -1 17 17 36
21 22 31 26 41 18 7 -6 13 -16 13 -22 0 -6 -6 -3 -13 7 -12 16 -15 16 -26 3
-8 -10 -9 -17 -1 -22 5 -3 10 -1 10 6 0 8 5 5 13 -5 12 -16 14 -16 26 -2 12
14 11 20 -10 43 -13 14 -19 23 -12 20 6 -4 14 -1 17 5 3 7 4 6 3 -4 -1 -9 3
-16 8 -15 6 1 10 11 11 22 1 29 3 32 17 32 8 0 14 -6 14 -14z m-256 -20 c13
-17 13 -17 -6 -3 -11 8 -22 16 -24 17 -2 2 0 3 6 3 6 0 17 -8 24 -17z m-1325
-28 c1 -8 -4 -19 -11 -25 -11 -9 -16 -6 -25 12 -10 21 -10 21 3 5 9 -11 18
-14 21 -8 4 5 2 12 -4 16 -6 4 -8 11 -4 16 7 12 17 4 20 -16z m72 16 c-1 -3 2
-14 6 -23 5 -11 0 -27 -14 -46 -12 -17 -19 -35 -16 -41 5 -7 1 -8 -10 -4 -12
4 -15 3 -10 -6 5 -7 2 -10 -5 -9 -12 3 -14 -8 -10 -43 0 -5 5 -8 11 -4 5 3 6
13 3 23 -3 9 -3 14 1 10 4 -3 8 -12 10 -20 1 -7 5 -18 9 -25 4 -6 3 -15 -3
-18 -6 -4 -9 -2 -8 3 2 6 -1 10 -7 10 -5 0 -9 -4 -7 -10 1 -5 -1 -7 -6 -5 -13
9 -41 -49 -31 -64 5 -8 9 -11 9 -6 0 4 -1 8 -2 10 -1 1 4 12 10 24 9 16 18 20
35 16 12 -3 32 -6 43 -7 21 -1 26 -18 9 -33 -4 -4 -5 -2 -1 5 4 6 5 12 2 12
-9 0 -41 -35 -43 -48 -4 -18 14 -14 21 4 3 8 10 13 15 10 12 -8 36 25 36 49
-1 11 -6 19 -13 18 -7 -2 -11 0 -10 5 4 15 -14 52 -23 46 -5 -3 -6 -11 -2 -17
4 -7 8 -21 10 -32 1 -11 -1 -14 -3 -7 -3 6 -11 9 -17 5 -7 -4 -7 -1 1 9 9 11
10 18 2 23 -6 3 -8 10 -5 15 3 5 1 11 -5 15 -5 3 -10 11 -10 18 0 6 7 2 16 -9
15 -19 15 -18 11 3 -3 13 2 27 12 35 14 11 14 11 4 -2 -9 -12 -8 -24 7 -57 10
-22 23 -44 29 -47 15 -10 14 7 -1 24 -11 12 -10 12 3 2 9 -6 20 -8 24 -4 5 4
1 -6 -8 -21 -10 -15 -16 -31 -13 -36 3 -5 -3 -16 -13 -25 -18 -17 -21 -42 -7
-64 5 -8 1 -21 -10 -33 -24 -26 -28 -53 -7 -44 9 3 4 -6 -10 -21 -15 -14 -25
-29 -23 -33 3 -4 -4 -8 -15 -8 -19 -2 -19 -1 2 16 25 20 33 75 13 92 -10 8
-11 16 -3 30 6 12 6 19 0 19 -5 0 -12 -8 -16 -19 -3 -10 -15 -27 -27 -37 -17
-16 -16 -13 5 19 14 21 24 47 22 58 -2 11 2 22 10 26 15 5 21 32 8 34 -5 0
-16 2 -25 4 -10 2 -19 -1 -19 -6 -2 -10 -5 -25 -9 -36 -1 -5 -2 -12 0 -18 1
-5 -4 -4 -11 3 -15 14 -33 16 -24 3 3 -5 1 -12 -4 -16 -6 -3 -7 -13 -4 -23 4
-13 2 -13 -10 3 -14 18 -14 21 -1 25 20 7 18 20 -8 47 -21 22 -22 22 -42 5
-20 -17 -21 -17 -5 3 9 11 14 26 12 33 -3 6 0 12 7 12 6 0 9 -4 6 -9 -3 -5 1
-14 9 -21 13 -11 15 -9 12 9 -5 33 -23 47 -42 31 -8 -7 -13 -15 -11 -18 3 -2
0 -14 -6 -26 -7 -11 -13 -27 -14 -34 -1 -8 -5 -17 -8 -20 -4 -3 -5 5 -2 19 2
13 -1 30 -6 36 -7 9 -5 15 6 19 12 5 14 10 6 19 -8 9 -8 15 0 20 6 3 7 12 3
18 -3 7 2 4 13 -5 13 -12 24 -14 34 -8 8 5 12 10 8 10 -5 0 -10 -1 -11 -2 -7
-5 -37 25 -37 36 0 6 5 3 11 -7 6 -9 14 -15 19 -12 5 3 11 1 15 -5 4 -6 11 -8
16 -5 12 8 11 35 -2 35 -5 0 -7 -5 -3 -12 4 -7 3 -8 -5 -4 -14 9 -5 26 15 26
8 0 12 5 9 10 -4 6 -11 7 -17 4 -7 -4 -8 -2 -4 5 4 6 11 9 16 6 4 -3 10 2 14
10 3 8 1 17 -4 20 -6 4 -10 12 -10 18 0 7 10 -3 21 -21 18 -28 24 -31 38 -20
9 7 6 1 -5 -12 -12 -14 -19 -32 -17 -40 3 -9 -1 -7 -9 4 -14 18 -15 18 -20 -8
-3 -14 -1 -29 3 -32 5 -3 9 0 9 7 0 10 3 10 13 1 6 -7 12 -17 12 -22 0 -6 5
-10 10 -9 6 1 8 6 6 13 -13 41 -1 93 20 81 10 -7 31 30 21 40 -4 3 0 5 8 3 9
-2 15 4 15 17 0 11 -5 19 -11 18 -6 -1 -11 4 -11 11 0 7 6 13 13 13 7 0 12 -3
12 -6z m1509 -13 c-3 -8 -6 -5 -6 6 -1 11 2 17 5 13 3 -3 4 -12 1 -19z m-557
-42 c0 -6 -7 -1 -15 10 -8 10 -15 23 -15 28 0 6 7 1 15 -10 8 -10 15 -23 15
-28z m110 25 c7 -14 7 -22 0 -26 -6 -4 -10 -3 -9 2 4 21 -2 34 -13 27 -7 -4
-8 -3 -4 4 10 16 14 15 26 -7z m-263 -10 c0 -11 -5 -18 -9 -15 -4 3 -5 11 -1
19 7 21 12 19 10 -4z m-223 -10 c3 -5 0 -11 -7 -14 -8 -3 -14 1 -14 9 0 16 13
19 21 5z m453 -22 c-9 -11 -13 -29 -10 -38 4 -9 3 -13 -1 -9 -11 9 -15 58 -5
52 5 -3 12 2 15 11 4 9 9 14 11 11 3 -3 -2 -15 -10 -27z m-974 9 c-6 -7 -9
-25 -8 -41 1 -15 -4 -32 -11 -38 -9 -8 -12 -6 -9 8 2 10 4 19 5 21 2 1 3 10 4
20 1 19 14 42 23 42 3 0 1 -6 -4 -12z m1490 -11 c-5 -11 -7 -11 -28 1 -19 11
-18 12 5 8 14 -1 24 -6 23 -9z m117 -12 c-7 -8 -9 -15 -5 -15 4 0 2 -6 -4 -13
-6 -8 -8 -17 -4 -20 3 -4 11 1 18 10 9 13 14 13 20 3 5 -8 4 -11 -2 -7 -6 4
-14 -5 -18 -20 l-6 -27 -13 25 c-8 14 -9 29 -4 36 6 7 3 15 -9 23 -17 11 -17
11 0 6 11 -3 20 0 24 10 3 8 8 13 11 10 3 -3 -1 -12 -8 -21z m-1817 3 c-4 -7
-8 -19 -9 -26 -2 -8 -5 -17 -8 -20 -9 -8 -2 30 7 46 5 6 10 12 13 12 3 0 2 -6
-3 -12z m834 -50 c2 -17 0 -19 -7 -8 -5 8 -6 18 -4 22 8 12 10 10 11 -14z
m-120 -10 c-3 -8 -6 -5 -6 6 -1 11 2 17 5 13 3 -3 4 -12 1 -19z m59 10 c4 -7
3 -8 -4 -4 -11 7 -17 -6 -13 -28 1 -5 -5 -4 -13 4 -17 13 -22 25 -7 16 5 -3
11 1 15 9 7 18 12 19 22 3z m118 -15 c3 -12 -1 -20 -10 -20 -9 0 -11 4 -5 10
5 5 7 17 4 26 -4 9 -3 13 1 10 4 -4 8 -15 10 -26z m398 15 c-9 -9 -9 -15 1
-27 11 -14 10 -14 -6 -2 -13 10 -15 17 -6 27 6 8 14 14 17 14 3 0 1 -5 -6 -12z
m503 -28 c-7 -11 -25 -7 -50 8 l-20 12 20 -2 c13 -2 19 2 17 12 -3 11 2 10 17
-4 11 -10 18 -22 16 -26z m-105 5 c14 -18 13 -19 -1 -8 -9 7 -19 10 -23 6 -4
-4 -4 1 0 10 3 10 7 17 8 15 1 -2 8 -12 16 -23z m171 -2 c13 -16 12 -17 -3 -4
-17 13 -22 21 -14 21 2 0 10 -8 17 -17z m-1831 -127 c0 -6 -5 -3 -11 7 -10 18
-11 18 -25 0 -14 -17 -14 -16 -4 5 9 19 14 21 26 11 8 -6 14 -17 14 -23z m-51
-22 c4 3 8 -1 8 -9 0 -8 -5 -13 -11 -12 -6 1 -10 -3 -9 -10 2 -7 -4 -10 -13
-6 -14 5 -14 7 -1 14 8 5 14 17 13 26 -2 10 -1 12 1 5 3 -7 8 -10 12 -8z m128
-4 c-3 -16 -15 -41 -26 -56 -21 -26 -20 -51 1 -38 6 4 8 2 4 -4 -3 -6 -2 -13
4 -17 5 -3 11 -1 11 4 1 6 2 15 3 21 2 18 23 33 31 21 3 -6 3 -10 -2 -9 -4 2
-8 -1 -8 -7 0 -5 3 -9 6 -8 10 3 7 -31 -4 -45 -8 -10 -14 -9 -28 4 -17 16 -28
6 -12 -10 11 -10 12 -37 2 -30 -8 5 -13 -10 -10 -29 1 -5 -3 -6 -9 -2 -5 3
-10 1 -10 -6 0 -7 -3 -10 -6 -6 -3 3 3 19 15 36 14 19 18 32 11 36 -6 4 -9 12
-8 18 2 7 -2 13 -7 13 -6 1 -9 -3 -7 -9 2 -6 -6 -3 -17 7 -12 11 -21 14 -21 8
0 -6 5 -14 10 -17 8 -5 8 -11 1 -19 -6 -7 -8 -16 -4 -19 3 -4 11 1 18 10 9 13
14 13 20 3 6 -9 4 -11 -5 -5 -10 6 -12 4 -7 -8 8 -22 -8 -30 -23 -12 -7 8 -17
12 -23 8 -5 -3 -7 -1 -3 5 3 6 2 13 -4 17 -5 3 -10 11 -10 18 0 6 6 3 13 -8
10 -12 16 -14 21 -7 4 7 3 12 -3 12 -13 0 -7 68 8 83 6 6 11 7 11 3 0 -5 6 -3
14 4 8 6 12 19 9 28 -4 14 -3 15 6 2 7 -11 6 -19 -6 -32 -9 -10 -19 -15 -24
-13 -13 9 -17 -9 -8 -33 5 -13 14 -20 19 -17 8 5 7 12 -2 23 -7 10 -8 14 -4
10 5 -4 20 7 33 24 17 24 20 34 10 40 -9 6 -9 8 1 8 6 0 12 7 12 15 0 8 3 15
6 15 3 0 3 -13 1 -30z m-95 -42 c-15 -18 -33 -15 -31 5 0 9 2 8 6 -1 9 -23 21
-2 17 31 l-5 32 14 -25 c12 -21 12 -27 -1 -42z m256 -5 c-12 -14 -28 -8 -27
10 0 9 2 8 6 -1 7 -18 23 -4 17 16 -5 14 -4 14 4 2 8 -10 8 -18 0 -27z m-284
-34 c13 -26 13 -29 1 -19 -8 7 -15 19 -15 27 0 8 -5 11 -12 7 -7 -4 -8 -3 -4
4 10 17 13 15 30 -19z m163 -114 c4 -4 3 -5 -4 -2 -6 4 -23 -7 -38 -25 -15
-18 -22 -24 -17 -13 5 11 7 27 5 35 -4 13 -3 13 6 0 9 -13 15 -8 12 12 -1 9
27 4 36 -7z m42 -97 c14 2 14 1 1 -7 -9 -6 -19 -6 -26 -1 -6 6 -14 7 -18 3 -4
-4 -4 1 0 12 7 18 6 19 -12 5 -17 -14 -18 -13 -7 1 7 9 12 18 10 20 -1 3 6 -4
17 -16 10 -11 26 -19 35 -17z"/>
<path d="M2272 1853 c6 -7 14 -10 19 -7 15 9 10 20 -10 20 -15 0 -17 -3 -9
-13z"/>
<path d="M2425 1791 c-38 -35 -52 -64 -30 -58 6 1 9 5 8 9 -1 3 15 22 37 42
22 19 36 37 32 40 -4 2 -25 -12 -47 -33z"/>
<path d="M2540 1805 c-7 -8 -16 -12 -21 -9 -5 3 -9 0 -9 -5 0 -6 4 -11 8 -11
14 0 47 28 41 34 -3 4 -12 0 -19 -9z"/>
<path d="M2138 1793 c10 -19 5 -46 -7 -39 -3 3 -6 -8 -5 -22 0 -15 5 -25 10
-23 5 1 8 8 6 13 -1 6 2 16 8 22 5 7 6 17 2 22 -4 4 0 3 9 -4 16 -12 29 -7 29
10 0 5 -4 7 -9 4 -11 -7 -33 18 -24 27 3 4 -1 7 -11 7 -13 0 -15 -4 -8 -17z"/>
<path d="M2037 1776 c10 -13 22 -22 26 -19 9 6 -21 43 -35 43 -5 0 -1 -11 9
-24z"/>
<path d="M2566 1712 c-3 -5 4 -13 15 -20 15 -10 19 -10 19 2 0 15 -27 29 -34
18z"/>
<path d="M2692 1749 c-10 -16 -16 -18 -27 -9 -9 7 -15 8 -20 0 -3 -5 0 -10 7
-10 7 0 19 -9 26 -20 7 -12 17 -18 22 -15 14 9 1 27 -13 19 -7 -4 1 7 17 24
20 21 25 32 15 32 -8 0 -20 -9 -27 -21z"/>
<path d="M1175 1750 c-3 -5 1 -10 10 -10 9 0 13 5 10 10 -3 6 -8 10 -10 10 -2
0 -7 -4 -10 -10z"/>
<path d="M1147 1673 c-4 -6 0 -16 7 -22 8 -7 13 -23 11 -36 -1 -14 4 -30 12
-37 8 -6 13 -7 11 -2 -1 5 4 19 11 32 9 17 9 27 2 36 -6 7 -8 16 -4 19 3 4 1
7 -5 7 -7 0 -12 -5 -12 -12 0 -6 -6 -4 -13 7 -9 11 -16 14 -20 8z"/>
<path d="M1086 1661 c-4 -5 -2 -12 3 -15 5 -4 12 -2 15 3 4 5 2 12 -3 15 -5 4
-12 2 -15 -3z"/>
<path d="M1081 1621 c-8 -5 -9 -11 -3 -15 5 -3 12 1 16 9 6 17 6 18 -13 6z"/>
<path d="M1289 1538 c-1 -7 -1 -23 -1 -36 1 -15 -3 -20 -11 -15 -7 4 -6 -1 2
-11 13 -15 16 -15 30 -2 11 12 12 19 4 27 -6 6 -9 17 -7 24 3 7 1 16 -5 20 -6
3 -12 0 -12 -7z"/>
<path d="M2896 1692 c-3 -5 1 -9 9 -9 8 0 12 4 9 9 -3 4 -7 8 -9 8 -2 0 -6 -4
-9 -8z"/>
<path d="M1244 1423 c4 -7 2 -13 -4 -13 -6 0 -8 -5 -4 -11 4 -8 9 -8 17 0 8 8
7 14 -2 24 -11 10 -13 10 -7 0z"/>
<path d="M2713 2253 c0 -22 44 -77 51 -64 3 4 -5 18 -19 31 -13 12 -21 28 -18
36 3 8 1 14 -4 14 -5 0 -10 -8 -10 -17z"/>
<path d="M3334 2251 c19 -21 43 -30 31 -12 -3 5 -1 13 5 16 6 4 9 1 8 -6 -2
-7 11 -13 33 -15 26 -2 36 1 36 11 0 8 -10 14 -21 14 -12 0 -41 3 -66 7 l-45
7 19 -22z"/>
<path d="M2766 2252 c-3 -6 -2 -13 4 -17 5 -3 10 -11 10 -18 0 -6 -7 -1 -16
11 -8 12 -20 22 -27 22 -6 0 5 -16 24 -37 18 -20 29 -33 22 -29 -7 4 -19 -5
-28 -21 -9 -15 -14 -20 -11 -10 7 23 -11 60 -25 51 -6 -3 -6 -10 -1 -17 5 -7
9 -20 9 -30 0 -16 -2 -16 -18 -1 -11 10 -19 12 -24 4 -3 -5 -11 -8 -16 -5 -5
4 -9 2 -9 -3 0 -16 13 -22 26 -11 8 7 14 6 20 -2 4 -7 3 -9 -3 -6 -19 12 -23
-23 -5 -41 9 -10 18 -26 20 -35 5 -27 48 -87 57 -79 5 4 6 0 2 -9 -3 -9 0 -22
6 -28 17 -17 31 -13 17 4 -11 13 -9 19 8 38 23 24 25 34 11 58 -5 10 -3 23 7
37 8 12 10 23 5 27 -5 3 -8 14 -6 25 2 11 0 22 -6 25 -9 6 -14 -9 -9 -30 1 -5
-9 -1 -21 10 l-22 20 5 -22 c3 -12 3 -21 -1 -20 -3 1 -7 -2 -8 -8 -1 -5 6 -9
15 -7 15 2 15 1 -1 -8 -9 -6 -15 -15 -12 -20 3 -5 1 -11 -4 -15 -6 -3 -8 3 -6
15 2 11 0 22 -6 25 -5 4 -9 1 -9 -6 0 -7 -3 -9 -6 -6 -4 4 -2 13 4 20 7 8 8
18 4 22 -4 5 -1 5 6 1 7 -4 12 -2 12 7 0 7 11 24 25 37 20 19 23 26 12 38 -6
8 -10 16 -8 16 3 1 0 9 -6 20 -6 11 -13 14 -17 8z m-52 -148 c3 -8 2 -12 -4
-9 -6 3 -10 10 -10 16 0 14 7 11 14 -7z m101 -3 c3 -5 2 -12 -3 -15 -5 -3 -9
1 -9 9 0 17 3 19 12 6z m-13 -35 c7 4 8 2 4 -5 -4 -6 -4 -18 1 -24 4 -7 0 -4
-9 6 -10 11 -18 24 -17 31 0 7 2 6 6 -2 2 -6 10 -9 15 -6z m-32 -36 c-6 -11
-13 -20 -16 -20 -2 0 0 9 6 20 6 11 13 20 16 20 2 0 0 -9 -6 -20z m31 -17 c13
-16 12 -17 -3 -4 -17 13 -22 21 -14 21 2 0 10 -8 17 -17z m-10 -20 c12 -16 12
-17 -2 -6 -9 7 -20 9 -24 5 -5 -4 -5 -1 -1 6 9 16 11 15 27 -5z"/>
<path d="M3463 2235 c0 -11 13 -14 51 -14 28 1 78 -2 111 -5 52 -4 49 -3 -30
14 -111 23 -132 24 -132 5z"/>
<path d="M1963 2203 c-21 -4 -28 -14 -24 -36 1 -5 -3 -6 -9 -2 -6 3 -8 10 -5
15 3 4 -3 7 -12 5 -10 -2 -26 -4 -37 -4 -12 -1 -16 -6 -12 -16 3 -8 2 -14 -2
-14 -20 3 -21 -3 -7 -30 15 -31 32 -34 59 -12 9 7 16 10 16 6 0 -4 7 -2 15 5
8 7 12 17 8 24 -4 7 -1 6 8 -1 13 -11 21 -7 45 19 16 17 23 28 16 24 -7 -4
-15 -1 -18 8 -3 9 -9 15 -13 15 -3 -1 -16 -4 -28 -6z m30 -38 c-9 -7 -23 -10
-30 -8 -10 4 -9 8 4 18 9 7 23 10 30 8 10 -4 9 -8 -4 -18z m-96 -10 c0 -8 -4
-12 -9 -9 -5 3 -6 10 -3 15 9 13 12 11 12 -6z m13 -30 c-14 -17 -45 -21 -35
-5 3 6 1 10 -6 10 -7 0 -9 3 -6 6 4 4 14 1 22 -6 14 -11 17 -10 22 11 4 13 8
18 11 11 2 -7 -2 -19 -8 -27z"/>
<path d="M2099 2193 c-1 -4 -1 -11 0 -15 2 -13 -17 -9 -21 4 -3 7 -7 8 -10 2
-4 -5 0 -17 7 -27 12 -16 14 -16 29 7 10 15 12 27 6 31 -6 3 -11 3 -11 -2z"/>
<path d="M1830 2159 c0 -5 -5 -7 -10 -4 -14 9 -121 -23 -144 -43 -10 -10 -21
-16 -25 -15 -3 0 -5 -4 -3 -10 2 -6 -4 -5 -12 2 -20 17 -45 7 -42 -16 2 -10 1
-12 -1 -5 -4 12 -23 17 -23 6 0 -3 5 -15 11 -26 11 -20 13 -20 24 -5 10 15 12
11 11 -26 -1 -42 -2 -44 -29 -42 -17 2 -26 -2 -24 -9 2 -6 13 -10 23 -8 11 2
15 -1 9 -5 -15 -11 -13 -32 5 -43 8 -5 16 -14 16 -20 1 -5 2 -15 3 -21 0 -5 5
-8 10 -5 10 7 9 25 -3 44 -4 7 -5 16 -2 19 3 3 1 12 -6 20 -9 11 -8 13 3 11
10 -2 13 5 12 22 -2 22 -2 23 6 5 5 -11 5 -25 0 -31 -5 -6 -6 -14 -2 -17 9 -9
34 13 27 24 -10 16 -13 50 -4 44 16 -10 31 30 17 45 -10 10 -8 10 11 1 12 -6
22 -16 22 -22 0 -6 -5 -7 -12 -3 -8 5 -9 2 -5 -10 4 -9 3 -15 -2 -12 -5 3 -14
0 -20 -8 -9 -10 -7 -19 9 -37 10 -13 19 -19 20 -12 0 6 -4 15 -10 18 -5 3 -10
12 -10 18 0 7 4 6 10 -3 9 -13 10 -13 10 0 0 12 2 12 9 1 5 -8 11 -9 15 -3 3
6 2 13 -4 17 -7 4 -7 12 0 24 7 14 4 23 -14 40 -24 22 -28 43 -12 58 4 4 6 1
4 -7 -1 -8 2 -14 8 -15 10 0 74 -68 74 -79 0 -3 -6 -3 -14 0 -13 5 -15 -11 -6
-36 1 -3 2 -7 2 -10 0 -3 6 -11 14 -18 11 -10 17 -8 34 10 16 18 20 19 14 5
-8 -23 -41 -41 -49 -27 -3 5 -11 10 -17 10 -6 0 -4 -8 5 -17 8 -10 16 -21 16
-25 1 -5 1 -9 2 -10 6 -20 6 -39 -1 -43 -4 -2 -7 4 -6 15 0 11 -3 20 -9 20 -5
0 -9 -11 -7 -23 2 -12 4 -31 6 -42 1 -11 7 -20 12 -20 5 0 8 4 6 10 -2 5 0 7
4 3 4 -4 14 0 22 10 11 13 10 11 -1 -9 -12 -20 -13 -29 -4 -38 6 -6 7 -11 3
-11 -5 0 -2 -8 5 -17 13 -16 12 -17 -3 -4 -19 15 -25 2 -7 -16 8 -8 8 -13 0
-18 -6 -3 -10 -2 -9 3 2 6 -1 9 -6 8 -6 0 -11 -12 -12 -25 -2 -18 0 -21 8 -13
9 9 15 8 27 -1 12 -10 14 -9 9 5 -4 9 -1 24 6 34 11 14 11 22 0 42 -9 19 -10
29 -1 43 9 14 7 22 -7 38 -10 11 -16 26 -13 33 4 9 6 7 6 -4 1 -27 20 -31 30
-6 8 18 10 19 10 5 1 -10 5 -16 11 -12 20 12 -3 35 -36 35 -50 0 -42 22 16 47
34 15 50 27 50 40 0 13 3 14 8 5 6 -9 16 -10 32 -4 17 6 20 11 11 17 -8 4 -17
2 -22 -6 -7 -10 -8 -5 -5 13 3 17 -1 34 -10 43 -9 8 -11 15 -5 15 6 0 11 4 11
8 0 16 -48 8 -59 -10 -13 -21 -1 -24 18 -5 10 10 12 9 9 -3 -2 -8 2 -14 7 -13
6 1 12 -7 12 -18 1 -11 -2 -17 -7 -14 -10 6 -22 -23 -14 -38 3 -7 -6 3 -21 21
-15 18 -31 30 -36 26 -5 -3 -9 -2 -8 3 3 19 -2 34 -10 29 -4 -3 -7 -18 -5 -33
2 -17 1 -20 -3 -8 -3 11 -18 35 -34 52 -16 19 -26 39 -23 48 7 18 15 20 13 3
-3 -25 1 -38 12 -38 5 0 7 5 3 12 -4 7 -3 8 5 4 6 -4 10 -13 9 -19 -2 -7 2
-13 7 -14 12 -4 14 18 3 34 -12 16 10 27 26 14 7 -6 15 -8 19 -5 3 3 4 -1 3
-10 -1 -8 -5 -18 -9 -21 -4 -3 -5 -2 -2 2 6 8 -14 33 -27 33 -7 0 -6 -5 1 -13
6 -8 9 -16 6 -19 -3 -2 11 -22 30 -44 19 -21 34 -34 35 -28 0 6 -9 19 -20 29
-17 16 -18 20 -5 38 12 17 12 24 0 47 -11 20 -11 30 -2 39 8 8 8 11 -1 11 -7
0 -12 -5 -12 -11z m-31 -22 c-2 -2 -11 -8 -20 -15 -12 -9 -16 -9 -16 1 0 7 9
14 20 14 11 1 18 1 16 0z m-140 -78 c-7 -13 -13 -27 -14 -31 -1 -22 -10 -11
-12 14 0 17 2 25 7 18 9 -15 23 17 14 33 -5 9 -4 9 5 1 10 -10 10 -17 0 -35z
m182 -66 c11 -15 11 -16 -1 -6 -10 9 -17 10 -27 1 -11 -8 -12 -7 -7 6 8 21 18
20 35 -1z m-51 -13 c6 -11 8 -20 6 -20 -3 0 -10 9 -16 20 -6 11 -8 20 -6 20 3
0 10 -9 16 -20z m70 -14 c0 -2 -7 -7 -16 -10 -8 -3 -12 -2 -9 4 6 10 25 14 25
6z"/>
<path d="M2076 2122 c-3 -5 1 -15 9 -22 8 -7 15 -9 15 -5 0 4 8 1 17 -6 10 -8
14 -9 10 -2 -4 6 -3 14 3 18 6 4 8 11 4 16 -3 6 -11 5 -21 -2 -11 -10 -16 -10
-23 0 -4 8 -10 9 -14 3z"/>
<path d="M1712 2063 c20 -21 24 -32 17 -45 -6 -11 -6 -19 1 -23 8 -5 7 -11 -1
-21 -6 -7 -16 -11 -23 -7 -6 4 -4 -1 4 -11 19 -24 21 -66 4 -73 -8 -3 -11 -10
-7 -17 3 -6 -3 -3 -14 7 -11 9 -23 14 -28 10 -4 -5 -5 -3 -2 3 4 6 -2 19 -13
29 -18 16 -30 8 -13 -9 12 -12 11 -35 -2 -46 -10 -9 -16 -7 -24 8 -6 11 -7 23
-3 27 4 5 -1 5 -10 2 -10 -4 -17 -2 -15 5 1 6 -3 12 -9 15 -7 2 -10 -7 -8 -26
2 -21 -4 -39 -20 -58 l-23 -27 1 24 c1 14 -2 30 -6 37 -6 7 -4 14 3 19 7 4 9
3 5 -4 -3 -6 -2 -13 3 -17 6 -3 8 -13 5 -23 -5 -14 -3 -14 10 2 19 24 21 40 4
30 -10 -6 -10 -4 0 7 15 16 16 33 2 24 -6 -4 -9 -1 -8 7 2 7 -3 12 -11 10 -9
-2 -7 7 7 30 14 21 29 33 43 33 16 0 23 7 26 25 3 24 3 24 -11 5 -8 -11 -18
-17 -22 -12 -4 4 -2 7 4 7 7 0 12 4 12 10 0 5 -7 6 -17 3 -11 -4 -14 -3 -9 5
4 7 5 21 1 32 -5 16 -10 17 -31 8 -13 -6 -24 -15 -24 -20 0 -5 -4 -6 -10 -3
-5 3 -21 -1 -34 -10 -14 -9 -44 -26 -68 -38 -24 -12 -42 -27 -41 -33 1 -6 -6
-10 -15 -10 -9 1 -17 -2 -17 -5 0 -4 -8 -16 -18 -26 -9 -11 -14 -23 -10 -26 8
-9 39 34 35 48 -2 6 0 6 5 2 4 -5 8 -12 8 -15 1 -17 17 -31 30 -26 8 4 12 11
9 16 -4 6 -10 5 -15 -3 -5 -8 -9 -9 -9 -3 0 11 39 51 46 47 2 -2 3 0 2 5 -2 4
-7 6 -12 4 -5 -2 -4 4 4 12 13 17 22 21 17 9 -1 -5 3 -8 8 -8 5 0 9 3 8 7 -1
3 5 12 15 20 15 12 16 11 3 -4 -7 -10 -10 -18 -6 -18 5 0 1 -8 -8 -17 -13 -15
-13 -21 -2 -36 9 -12 15 -14 20 -7 10 16 34 -6 30 -28 -1 -9 3 -20 9 -24 8 -6
8 -8 -1 -8 -6 0 -10 -9 -8 -19 2 -11 -7 -29 -20 -41 -20 -19 -22 -26 -14 -43
8 -14 8 -18 0 -13 -6 4 -11 2 -11 -3 0 -6 7 -11 16 -11 11 0 14 -6 8 -22 -6
-20 -5 -21 9 -9 12 9 14 18 8 30 -6 11 -4 23 5 35 11 16 11 22 1 35 -8 10 -8
13 0 8 6 -4 14 -1 17 5 3 7 3 0 1 -16 -2 -16 -9 -34 -14 -39 -13 -13 6 -50 20
-41 7 4 7 10 0 18 -6 8 -6 17 0 26 8 12 9 11 7 -5 -2 -12 2 -19 9 -18 7 2 12
0 12 -5 -3 -19 2 -23 16 -12 12 10 13 16 4 26 -6 8 -16 11 -22 7 -5 -3 -7 -1
-3 5 3 6 2 13 -3 16 -5 3 7 22 26 41 20 20 32 39 27 46 -4 8 -3 9 5 5 9 -6 8
-14 -5 -33 -16 -25 -16 -26 1 -19 16 6 16 4 4 -10 -8 -10 -15 -12 -17 -5 -2 6
-8 8 -13 5 -6 -3 -5 -12 3 -22 12 -15 11 -16 -4 -3 -22 16 -24 -1 -3 -19 12
-10 16 -8 25 15 7 18 15 25 25 21 18 -6 19 -1 5 25 -6 10 -8 19 -6 19 13 0 27
-42 18 -53 -6 -7 -11 -15 -11 -19 -1 -5 -1 -9 -2 -10 -10 -35 7 -63 40 -63 9
0 15 -7 13 -15 -3 -10 3 -9 18 5 12 11 24 19 26 18 2 -2 5 -3 7 -2 20 6 38 5
42 -1 3 -5 -4 -7 -15 -5 -11 2 -18 0 -15 -5 8 -13 40 -4 40 12 0 8 8 26 17 40
9 14 14 29 11 32 -4 3 -14 -6 -24 -21 -16 -24 -58 -45 -43 -22 3 5 10 7 15 3
10 -6 5 38 -6 56 -7 12 -25 4 -25 -11 0 -6 4 -8 9 -5 12 8 8 -13 -7 -40 -6
-12 -8 -25 -4 -30 4 -5 0 -3 -9 4 -11 8 -19 8 -26 1 -8 -8 -13 -8 -17 0 -4 6
0 11 9 11 9 0 14 4 10 9 -3 6 -14 8 -24 6 -16 -3 -19 1 -15 23 3 14 7 28 9 32
2 3 0 12 -5 20 -19 30 23 62 47 35 4 -4 2 -5 -4 -1 -7 4 -13 3 -13 -3 0 -5 6
-12 13 -14 9 -4 9 -6 -1 -6 -9 -1 -10 -6 -3 -20 6 -10 7 -21 4 -25 -3 -3 -2
-6 4 -6 16 0 24 28 10 34 -7 2 -3 4 8 3 11 -2 26 -6 33 -10 15 -10 27 17 15
35 -10 16 -12 67 -2 65 4 -1 7 3 7 8 0 6 -4 9 -8 8 -9 -3 -6 30 5 46 3 5 1 12
-4 15 -10 6 -9 25 1 41 7 12 -32 58 -53 63 -8 2 -2 -9 13 -25z m-157 -39 c0
-14 -3 -28 -7 -30 -5 -3 -8 -2 -7 3 3 19 -2 34 -9 29 -5 -3 -9 1 -9 8 0 8 7
12 15 8 11 -4 13 -1 7 9 -4 8 -4 11 0 6 5 -4 9 -19 10 -33z m-71 -16 c-5 -7
-10 -21 -11 -32 -3 -16 -1 -17 12 -6 8 7 13 15 11 19 -2 3 1 15 5 26 9 19 9
18 5 -2 -4 -24 15 -48 30 -35 7 6 -4 -11 -24 -38 -2 -3 -2 2 -1 10 2 8 -1 16
-6 18 -6 1 -11 -2 -11 -8 -1 -5 -2 -15 -3 -22 0 -6 -8 -3 -16 8 -13 16 -16 17
-25 4 -5 -8 -10 -10 -10 -4 0 6 7 17 15 24 8 6 14 15 13 18 -2 11 14 43 19 38
3 -3 1 -11 -3 -18z m23 -97 c0 -11 -5 -18 -9 -15 -4 3 -5 11 -1 19 7 21 12 19
10 -4z m227 -46 c-4 -8 0 -23 7 -33 12 -16 12 -16 -5 0 -16 14 -17 48 -2 48 3
0 3 -7 0 -15z m-263 -88 c-10 -9 -11 -8 -5 6 3 10 9 15 12 12 3 -3 0 -11 -7
-18z"/>
<path d="M1860 2041 c0 -5 5 -13 10 -16 6 -3 10 -2 10 4 0 5 -4 13 -10 16 -5
3 -10 2 -10 -4z"/>
<path d="M2916 2021 c-4 -5 -2 -12 4 -16 6 -4 8 -10 5 -15 -3 -5 -1 -11 4 -14
5 -4 12 -2 15 3 4 5 2 12 -4 16 -6 4 -8 10 -5 15 3 5 1 11 -4 14 -5 4 -12 2
-15 -3z"/>
<path d="M2902 1958 c-18 -18 -15 -29 15 -60 15 -15 21 -28 15 -28 -7 0 -12
-5 -12 -12 0 -6 9 -3 20 7 l20 18 -20 22 c-19 20 -19 23 -5 35 13 11 13 15 3
21 -17 12 -22 11 -36 -3z m12 -34 c3 -8 2 -12 -4 -9 -6 3 -10 10 -10 16 0 14
7 11 14 -7z"/>
<path d="M1545 1950 c-10 -16 7 -31 23 -21 10 6 10 10 -2 20 -10 9 -16 9 -21
1z"/>
<path d="M1661 1937 c-8 -11 -5 -19 12 -35 22 -21 44 -18 41 6 -1 6 -2 17 -3
24 0 6 -10 3 -23 -8 -16 -13 -19 -14 -10 -2 16 20 -1 34 -17 15z"/>
<path d="M3002 1917 c-12 -14 -9 -55 3 -47 7 4 17 60 10 60 -1 0 -7 -6 -13
-13z"/>
<path d="M1649 1849 c-1 -8 0 -18 1 -24 2 -5 2 -18 2 -28 0 -10 4 -16 11 -14
7 3 10 11 9 18 -2 8 -6 22 -8 33 -4 24 -14 33 -15 15z"/>
<path d="M1890 1851 c0 -6 4 -13 10 -16 6 -3 7 1 4 9 -7 18 -14 21 -14 7z"/>
<path d="M1966 1821 c-4 -5 -2 -12 3 -15 5 -4 12 -2 15 3 4 5 2 12 -3 15 -5 4
-12 2 -15 -3z"/>
<path d="M2916 1811 c-4 -5 -2 -12 3 -15 5 -4 12 -2 15 3 4 5 2 12 -3 15 -5 4
-12 2 -15 -3z"/>
<path d="M3035 1800 c3 -5 -4 -11 -17 -11 -17 -1 -18 -3 -5 -6 9 -2 17 -9 17
-15 0 -18 14 0 17 22 2 11 -2 20 -8 20 -5 0 -7 -4 -4 -10z"/>
<path d="M1405 1790 c-6 -9 1 -14 18 -11 4 0 7 -3 7 -9 0 -15 -11 -12 -32 7
-17 15 -20 15 -28 3 -6 -10 -2 -23 16 -41 24 -26 25 -28 10 -51 -9 -14 -13
-28 -9 -32 5 -4 8 -13 8 -18 0 -6 6 -13 14 -16 8 -3 11 0 7 7 -14 22 -14 50 0
61 7 7 12 16 9 20 -3 5 -1 11 5 15 14 9 13 -18 -2 -33 -7 -7 -8 -12 -4 -12 5
0 3 -7 -4 -15 -8 -9 -8 -15 -2 -15 6 0 9 -12 6 -27 -4 -27 -3 -27 11 -9 10 14
12 23 4 32 -7 8 -7 14 1 19 6 3 7 12 3 18 -4 8 -1 7 9 -1 10 -8 19 -9 22 -4 3
6 -1 13 -10 16 -9 3 -14 13 -11 20 3 8 -1 17 -9 20 -10 4 -13 13 -9 25 6 21
-19 49 -30 31z m-7 -45 c-3 -3 -9 2 -12 12 -6 14 -5 15 5 6 7 -7 10 -15 7 -18z"/>
<path d="M1753 1782 c1 -14 5 -18 11 -12 7 7 6 14 -1 21 -9 9 -12 7 -10 -9z"/>
<path d="M1654 1770 c-12 -5 -14 -9 -6 -14 7 -4 12 -4 12 0 0 4 8 -1 19 -10
17 -15 19 -15 25 -1 3 9 6 20 6 24 0 8 -33 9 -56 1z"/>
<path d="M2986 1751 c-4 -5 -2 -12 3 -15 5 -4 12 -2 15 3 4 5 2 12 -3 15 -5 4
-12 2 -15 -3z"/>
<path d="M2846 1724 c-23 -23 -20 -30 4 -9 11 10 20 20 20 22 0 7 -9 2 -24
-13z"/>
<path d="M1352 1427 c-24 -26 -29 -43 -9 -31 9 6 9 5 -1 -8 -10 -12 -9 -18 3
-28 8 -7 16 -9 16 -4 4 31 3 40 -5 52 -14 20 2 14 24 -10 11 -12 20 -16 20
-10 0 7 5 12 12 12 6 0 5 -7 -5 -18 -13 -15 -14 -21 -4 -31 6 -6 12 -22 12
-33 0 -12 5 -23 12 -25 8 -3 11 3 8 17 -2 11 0 18 6 15 5 -4 7 -11 4 -16 -4
-5 0 -9 7 -9 8 0 9 -3 3 -8 -5 -4 -12 -16 -13 -27 -2 -11 -8 -25 -13 -32 -7
-7 -6 -14 1 -18 6 -3 8 -11 4 -16 -12 -19 -20 1 -19 46 0 25 -4 50 -10 55 -17
14 -13 -94 5 -116 8 -11 10 -16 6 -12 -5 4 -16 2 -25 -5 -14 -10 -14 -10 -4 4
10 12 10 18 1 27 -7 7 -8 12 -4 12 5 0 3 7 -5 16 -7 9 -9 18 -3 22 14 11 16
42 3 42 -7 0 -3 10 9 23 17 18 19 26 10 35 -17 17 -33 15 -19 -2 8 -10 6 -19
-9 -39 -22 -28 -26 -42 -8 -31 7 5 8 3 3 -7 -14 -22 -14 -57 0 -69 8 -6 11
-18 9 -25 -4 -9 18 -26 67 -50 64 -33 73 -35 81 -20 8 13 13 14 24 4 17 -14
19 2 2 21 -11 12 -10 12 5 1 9 -7 17 -23 17 -34 0 -19 -1 -20 -20 -2 -16 15
-20 15 -20 3 0 -8 18 -22 39 -30 37 -15 40 -15 62 6 23 21 23 21 6 0 -14 -17
-15 -23 -5 -31 12 -10 70 -27 93 -28 6 0 13 -4 16 -8 3 -4 18 -10 32 -13 15
-2 38 -9 52 -14 38 -15 30 -3 -15 20 -22 11 -40 18 -40 14 0 -3 -7 2 -16 10
-8 9 -20 14 -25 11 -5 -4 -9 -2 -9 3 0 11 -85 77 -134 104 -17 10 -30 21 -30
25 1 5 -13 26 -31 48 -42 51 -83 128 -91 171 -5 28 -9 32 -24 24 -20 -11 -41
5 -33 26 8 20 -1 17 -25 -9z m75 -54 c-4 -3 -1 -13 6 -22 11 -14 10 -14 -5 -2
-16 12 -16 31 -1 31 4 0 3 -3 0 -7z m58 -125 c4 -4 8 -18 9 -32 3 -20 -1 -25
-15 -23 -10 2 -22 7 -26 11 -5 4 -2 6 6 4 8 -2 15 7 17 21 4 24 4 24 -18 5
-14 -11 -18 -13 -10 -3 6 9 9 18 6 22 -3 3 1 4 10 3 8 -1 18 -5 21 -8z m47
-62 c7 5 8 2 2 -7 -5 -8 -7 -21 -6 -31 2 -9 -3 -20 -10 -24 -25 -16 -36 -12
-33 12 1 14 -2 27 -6 30 -5 3 -9 -3 -9 -12 0 -17 -14 -11 -16 7 -3 22 -5 23
-14 9 -6 -9 -5 -20 3 -30 10 -13 10 -13 -5 -1 -14 10 -15 17 -7 33 7 13 14 16
22 10 7 -5 20 -8 30 -6 11 1 16 0 13 -3 -3 -4 0 -13 7 -21 10 -13 9 -14 -2 -8
-9 6 -12 5 -10 -3 9 -25 24 -5 23 29 -1 19 0 29 3 22 3 -6 10 -9 15 -6z m55
-68 c-3 -8 -6 -5 -6 6 -1 11 2 17 5 13 3 -3 4 -12 1 -19z m0 -40 c-3 -8 -6 -5
-6 6 -1 11 2 17 5 13 3 -3 4 -12 1 -19z m43 17 c0 -2 -6 -8 -13 -14 -10 -8
-14 -7 -14 2 0 8 6 14 14 14 7 0 13 -1 13 -2z m35 -25 c-3 -6 1 -13 9 -16 9
-3 16 -11 16 -17 0 -5 -9 -2 -20 8 -14 13 -20 14 -20 5 0 -7 -3 -10 -6 -7 -4
4 -1 13 6 22 14 17 25 20 15 5z"/>
<path d="M1370 1380 c0 -5 5 -10 11 -10 5 0 7 5 4 10 -3 6 -8 10 -11 10 -2 0
-4 -4 -4 -10z"/>
<path d="M1420 1269 c0 -5 5 -7 10 -4 6 3 10 8 10 11 0 2 -4 4 -10 4 -5 0 -10
-5 -10 -11z"/>
</g>
</svg>
